# Blender v2.80 (sub 75) OBJ File: 'DysonPanel.blend'
# www.blender.org
mtllib DysonPanel.mtl
o Icosphere.001_Icosphere.003
v 0.696794 0.093849 -1.217462
v 0.846172 0.045188 -1.476179
v 0.846172 0.045188 1.476179
v 0.696794 0.093850 1.217462
v -1.405123 0.080611 -0.000000
v -1.702413 0.029137 0.000000
v 0.708846 -0.131649 1.236013
v 0.846408 0.007657 1.476179
v 0.846408 0.007657 -1.476179
v 0.708846 -0.131649 -1.236013
v -1.702176 -0.008394 0.000000
v -1.425100 -0.145088 0.000000
v 0.796260 0.094476 1.390128
v 0.796259 0.094475 -1.390128
v -1.603762 0.079360 0.000000
v 0.619841 0.052343 1.082996
v 0.619841 0.052342 -1.082996
v -1.249925 0.040567 0.000000
vt 0.159091 0.433017
vt 0.159091 0.433017
vt 0.181818 0.393651
vt 0.181818 0.393651
vt 0.204545 0.433017
vt 0.204545 0.433017
vt 0.162047 0.431307
vt 0.162047 0.431307
vt 0.181818 0.397062
vt 0.181818 0.397062
vt 0.203220 0.432251
vt 0.160416 0.432251
vt 0.181818 0.395180
vt 0.200848 0.430878
vt 0.162788 0.430878
vt 0.181818 0.397918
vt 0.201589 0.431307
vt 0.201589 0.431307
vn -0.5012 -0.0032 0.8653
vn -0.5012 -0.0032 -0.8653
vn 0.2285 0.8857 -0.4042
vn 0.7026 0.7115 -0.0000
vn -0.3588 0.7049 -0.6119
vn -0.3589 0.7049 0.6119
vn 0.7115 -0.7026 0.0000
vn -0.3499 -0.7093 -0.6119
vn -0.3499 -0.7093 0.6119
vn 1.0000 0.0063 0.0000
vn -0.0063 1.0000 -0.0000
vn 0.2285 0.8857 0.4042
vn -0.4747 0.8801 -0.0000
vn 0.0063 -1.0000 0.0000
usemtl Material.002
s off
f 8/1/1 3/2/1 6/3/1 11/4/1
f 11/4/2 6/3/2 2/5/2 9/6/2
f 4/7/3 16/8/3 18/9/3 5/10/3
f 2/5/4 14/11/4 13/12/4 3/2/4
f 14/11/5 2/5/5 6/3/5 15/13/5
f 3/2/6 13/12/6 15/13/6 6/3/6
f 10/14/7 9/6/7 8/1/7 7/15/7
f 9/6/8 10/14/8 12/16/8 11/4/8
f 7/15/9 8/1/9 11/4/9 12/16/9
f 9/6/10 2/5/10 3/2/10 8/1/10
f 4/7/11 13/12/11 14/11/11 1/17/11
f 1/17/11 14/11/11 15/13/11 5/10/11
f 5/10/11 15/13/11 13/12/11 4/7/11
f 5/10/12 18/9/12 17/18/12 1/17/12
f 1/17/13 17/18/13 16/8/13 4/7/13
usemtl Material.003
f 16/8/11 17/18/11 18/9/11
usemtl Material.004
f 10/14/14 7/15/14 12/16/14
